<svg width="42" height="41" viewBox="0 0 42 41" fill="none" xmlns="http://www.w3.org/2000/svg">
<path d="M0.5 20C0.5 9.23045 9.23045 0.5 20 0.5H22C32.7696 0.5 41.5 9.23045 41.5 20V21C41.5 31.7696 32.7696 40.5 22 40.5H20C9.23045 40.5 0.5 31.7696 0.5 21V20Z" fill="#405F94" stroke="white"/>
<path d="M13.8333 28.375H15.4958L26.9 17.3781L25.2375 15.775L13.8333 26.7719V28.375ZM11.5 30.625V25.8438L26.9 11.0219C27.1333 10.8156 27.391 10.6562 27.6729 10.5438C27.9549 10.4313 28.2514 10.375 28.5625 10.375C28.8736 10.375 29.175 10.4313 29.4667 10.5438C29.7583 10.6562 30.0111 10.825 30.225 11.05L31.8292 12.625C32.0625 12.8312 32.2326 13.075 32.3396 13.3563C32.4465 13.6375 32.5 13.9188 32.5 14.2C32.5 14.5 32.4465 14.7859 32.3396 15.0578C32.2326 15.3297 32.0625 15.5781 31.8292 15.8031L16.4583 30.625H11.5ZM26.0542 16.5906L25.2375 15.775L26.9 17.3781L26.0542 16.5906Z" fill="#FEF7FF"/>
</svg>
