<svg width="12" height="13" viewBox="0 0 12 13" fill="none" xmlns="http://www.w3.org/2000/svg">
<path d="M1.33333 11.4583H2.28333L8.8 4.53437L7.85 3.525L1.33333 10.449V11.4583ZM0 12.875V9.86458L8.8 0.532292C8.93333 0.402431 9.08056 0.302083 9.24167 0.23125C9.40278 0.160417 9.57222 0.125 9.75 0.125C9.92778 0.125 10.1 0.160417 10.2667 0.23125C10.4333 0.302083 10.5778 0.408333 10.7 0.55L11.6167 1.54167C11.75 1.67153 11.8472 1.825 11.9083 2.00208C11.9694 2.17917 12 2.35625 12 2.53333C12 2.72222 11.9694 2.90226 11.9083 3.07344C11.8472 3.24462 11.75 3.40104 11.6167 3.54271L2.83333 12.875H0ZM8.31667 4.03854L7.85 3.525L8.8 4.53437L8.31667 4.03854Z" fill="#938F99"/>
</svg>
